<svg version="1.1" xmlns="http://www.w3.org/2000/svg" xmlns:xlink="http://www.w3.org/1999/xlink" width="512.000000pt" height="512.000000pt" viewBox="0,0,256,256"><g fill="#111314" fill-rule="nonzero" stroke="none" stroke-width="1" stroke-linecap="butt" stroke-linejoin="miter" stroke-miterlimit="10" stroke-dasharray="" stroke-dashoffset="0" font-family="none" font-weight="none" font-size="none" text-anchor="none" style="mix-blend-mode: normal"><g transform="translate(-0.07148,0.028) scale(0.5,0.5)"><g transform="translate(0,512) scale(0.1,-0.1)"><path d="M166,5100c-58,-23 -109,-69 -139,-125l-22,-40v-2375v-2375l22,-40c25,-47 74,-95 123,-121c34,-18 100,-19 1795,-22c1935,-2 1809,-6 1887,58c20,17 48,53 62,82l26,52v476v477l-23,21c-33,31 -87,29 -118,-4l-24,-26l-2,-446c-2,-246 -5,-457 -8,-469c-13,-56 85,-53 -1790,-53h-1727l-29,29l-29,29v2331v2330l24,28l24,28l1729,3c1219,1 1736,-1 1754,-9c15,-5 31,-20 38,-32c8,-16 12,-255 14,-849l2,-826l24,-26c32,-34 88,-36 119,-3l22,23v850v850l-26,53c-31,61 -96,114 -161,130c-29,8 -589,11 -1780,11c-1690,-1 -1739,-1 -1787,-20z"></path><path d="M824,4600c-50,-20 -54,-40 -54,-253c0,-197 0,-198 25,-222l24,-25h1144h1144l20,23c30,33 34,54 19,91c-9,23 -24,37 -46,45c-24,8 -329,11 -1096,11h-1064v85v85h1083h1084l20,23c30,33 34,54 19,91c-9,23 -24,37 -46,45c-40,13 -2242,15 -2276,1z"></path><path d="M4755,4069c-53,-26 -92,-64 -126,-125c-27,-47 -31,-50 -63,-46c-18,2 -43,-1 -54,-7c-11,-6 -65,-88 -120,-183c-138,-237 -118,-216 -184,-184c-53,26 -57,26 -91,12c-25,-10 -39,-23 -44,-43c-15,-57 -2,-81 64,-122l43,-27l-361,-624l-361,-625l-89,-239c-50,-131 -117,-290 -149,-353c-54,-102 -60,-119 -60,-174c0,-39 7,-77 21,-109l21,-49l-88,-108c-48,-59 -90,-112 -94,-116c-4,-5 -22,28 -40,72c-50,125 -119,175 -217,156c-37,-7 -103,-64 -129,-109c-8,-15 -14,23 -27,168c-18,208 -27,235 -95,281c-65,44 -162,29 -214,-33c-38,-45 -254,-696 -244,-735c8,-35 62,-69 96,-62c14,3 34,16 45,28c11,13 63,154 120,330c55,169 102,307 105,307c4,0 12,-75 19,-167c7,-94 19,-183 27,-203c55,-131 216,-149 297,-33c17,24 34,43 37,43c4,0 19,-32 35,-71c34,-88 63,-123 120,-144c52,-20 104,-14 151,18c17,11 78,80 135,152l103,131l57,-4c45,-3 68,1 111,20c66,31 93,59 171,181c34,53 130,179 213,280l151,182l363,630c199,347 364,631 365,633c7,8 85,-40 99,-60c33,-46 22,-72 -160,-388c-97,-168 -178,-319 -181,-337c-5,-26 0,-38 26,-64c27,-26 37,-30 63,-25c17,3 37,11 44,17c20,17 374,634 385,671c33,115 -15,225 -128,298l-62,40l109,190c117,201 129,239 91,274c-19,18 -19,19 15,81c43,78 52,142 31,216c-33,111 -127,179 -246,179c-45,-1 -79,-7 -106,-21zM4920,3900c32,-32 35,-64 10,-116c-13,-25 -28,-48 -35,-50c-9,-4 -118,51 -144,72c-7,6 49,93 67,103c29,17 80,13 102,-9zM4734,3619c77,-45 143,-83 145,-85c3,-3 -152,-278 -165,-293c-2,-3 -277,152 -293,165c-4,3 162,294 168,294c2,0 67,-37 145,-81zM4527,3147c51,-28 93,-56 93,-61c0,-7 -632,-1107 -669,-1165c-7,-10 -40,5 -152,70c-79,45 -145,83 -147,85c-2,1 420,738 655,1141l25,42l51,-29c29,-17 94,-54 144,-83zM3743,1828c48,-28 90,-54 93,-59c3,-5 -43,-67 -102,-139l-108,-129l-55,31c-31,18 -68,39 -83,48c-16,8 -28,18 -28,21c0,7 110,300 117,312c2,4 21,-2 41,-14c21,-12 76,-44 125,-71zM3466,1394c35,-20 64,-38 64,-40c0,-17 -44,-85 -62,-98c-53,-38 -129,0 -131,64c0,36 37,110 55,110c5,0 39,-16 74,-36z"></path><path d="M1053,3898c-30,-34 -34,-55 -19,-93c11,-26 24,-36 53,-45c27,-8 288,-10 901,-8l864,3l24,28c31,37 31,81 -1,112l-24,25h-889h-889z"></path><path d="M1421,3319c-35,-14 -50,-39 -51,-81c0,-28 6,-41 26,-57c27,-21 31,-21 996,-21h969l24,25c34,33 34,83 -1,116l-26,24l-956,2c-601,1 -966,-2 -981,-8z"></path><path d="M663,2813c-30,-6 -63,-49 -63,-84c0,-15 11,-41 24,-56l24,-28h885h885l26,24c36,34 36,88 0,122l-26,24l-866,1c-477,1 -877,0 -889,-3z"></path><path d="M2715,2813c-65,-17 -88,-98 -39,-144l26,-24h330h330l24,28c31,36 31,78 0,114l-24,28l-314,2c-172,0 -322,-1 -333,-4z"></path><path d="M645,2378c-51,-29 -61,-93 -20,-133l24,-25h459h459l27,26c35,36 34,77 -3,115l-29,29h-449c-318,-1 -454,-4 -468,-12z"></path><path d="M1840,2377c-54,-27 -61,-99 -13,-137c24,-19 42,-20 352,-20c315,0 328,1 349,20c46,43 37,109 -18,137c-36,18 -634,18 -670,0z"></path><path d="M920,1775c-273,-58 -485,-263 -556,-535c-26,-100 -24,-265 4,-365c72,-250 258,-435 507,-507c61,-17 106,-22 190,-23c136,0 192,13 323,77c87,41 117,62 181,126c131,130 207,290 218,461c5,84 5,87 -22,114c-60,59 -145,14 -145,-76c-1,-125 -64,-272 -160,-367c-111,-111 -237,-164 -390,-164c-313,-2 -556,241 -554,554c0,153 53,279 164,390c133,133 326,188 510,144c58,-13 89,-27 222,-96c33,-18 39,-18 72,-4c38,16 50,42 44,92c-6,57 -167,148 -317,180c-82,17 -206,17 -291,-1z"></path><path d="M1380,1313c-8,-3 -88,-76 -178,-161l-163,-155l-103,101c-85,84 -108,102 -133,102c-43,0 -83,-42 -83,-87c0,-30 13,-48 106,-143c58,-60 121,-116 141,-125c40,-19 105,-22 147,-5c39,14 345,316 362,357c19,45 2,91 -42,109c-18,8 -35,14 -36,13c-2,0 -10,-3 -18,-6z"></path></g></g></g></svg>