<svg version="1.1" xmlns="http://www.w3.org/2000/svg" xmlns:xlink="http://www.w3.org/1999/xlink" width="512.000000pt" height="512.000000pt" viewBox="0,0,256,256"><g fill="#111314" fill-rule="nonzero" stroke="none" stroke-width="1" stroke-linecap="butt" stroke-linejoin="miter" stroke-miterlimit="10" stroke-dasharray="" stroke-dashoffset="0" font-family="none" font-weight="none" font-size="none" text-anchor="none" style="mix-blend-mode: normal"><g transform="translate(0,0.11512) scale(0.5,0.5)"><g transform="translate(0,512) scale(0.1,-0.1)"><path d="M2113,4656c-141,-34 -289,-150 -350,-272c-19,-39 -55,-163 -99,-338l-69,-276h-67h-68v143c-1,96 -5,147 -13,158c-28,37 -48,39 -412,39h-357l-29,-29l-29,-29v-140v-140l-147,-4c-119,-4 -158,-9 -200,-25c-113,-45 -212,-146 -250,-256c-17,-49 -18,-127 -18,-1377c0,-1250 1,-1328 18,-1377c39,-113 147,-221 260,-260c49,-17 161,-18 2277,-18c2116,0 2228,1 2277,18c113,39 221,147 260,260c17,49 18,127 18,1377c0,1250 -1,1328 -18,1377c-38,109 -136,210 -250,257c-51,21 -64,21 -687,24l-636,3l-68,276c-44,177 -80,297 -99,337c-64,128 -220,245 -365,275c-78,16 -811,13 -879,-3zM3032,4468c71,-33 137,-93 171,-155c16,-31 54,-162 103,-356c45,-180 84,-317 95,-330l17,-22l679,-5l678,-5l47,-28c53,-31 94,-79 114,-134c9,-25 13,-89 14,-190v-153h-751h-751l-47,39c-160,133 -365,231 -584,278c-115,25 -399,25 -514,0c-215,-46 -423,-145 -584,-279l-47,-38h-751h-751v153c1,101 5,165 14,190c20,55 61,103 114,134l47,28l678,5l679,5l17,22c11,13 50,150 95,328c42,169 85,324 96,346c42,80 105,137 199,176c56,23 57,23 461,20l405,-2zM1290,3855v-85h-250h-250v85v85h250h250zM2781,3240c283,-58 520,-204 694,-430c336,-436 309,-1072 -63,-1474c-230,-248 -519,-376 -852,-376c-370,0 -702,167 -926,465c-298,398 -300,965 -4,1365c54,72 171,191 240,243c253,191 602,270 911,207zM1506,2915c-3,-9 -24,-42 -45,-74c-74,-108 -181,-350 -181,-407c0,-8 -39,-13 -122,-16c-108,-4 -129,-8 -174,-31c-230,-118 -230,-436 0,-554c45,-23 66,-27 174,-31c83,-3 122,-8 122,-16c0,-6 12,-47 26,-91c32,-97 96,-230 153,-313c23,-34 44,-68 47,-77c5,-13 -69,-15 -665,-15h-671v820v820h671c596,0 670,-2 665,-15zM4950,2110v-820h-312c-306,0 -312,0 -335,-22c-30,-28 -31,-83 -1,-115l21,-23h315h314l-4,-168c-3,-162 -4,-169 -31,-214c-31,-53 -79,-94 -134,-114c-56,-20 -4390,-20 -4446,0c-55,20 -103,61 -134,114c-27,45 -28,52 -31,215l-4,167h752h752l47,-38c161,-134 369,-233 584,-279c115,-25 399,-25 514,0c219,47 424,145 584,278l47,39h302c174,0 309,4 319,10c31,16 46,65 31,100c-7,17 -21,35 -31,40c-10,6 -116,10 -238,10c-122,0 -221,3 -221,7c0,4 21,38 46,75c94,141 164,307 201,481c25,115 25,399 0,514c-37,171 -108,342 -201,481c-25,37 -46,71 -46,75c0,4 302,7 670,7h670zM1240,2109v-141l-87,4c-69,2 -94,7 -115,23c-77,58 -79,169 -4,225c34,25 48,29 129,29l77,1z"></path><path d="M2092,4308c-30,-33 -176,-616 -163,-651c23,-59 3,-57 631,-57c628,0 608,-2 631,57c13,35 -133,618 -163,651l-21,22h-447h-447zM2954,3975c25,-101 46,-189 46,-195c0,-7 -148,-10 -440,-10c-292,0 -440,3 -440,10c0,6 21,94 46,195l46,185h348h348z"></path><path d="M2405,2969c-313,-58 -577,-289 -673,-589c-125,-388 32,-808 382,-1019c121,-73 246,-110 398,-118c424,-23 780,240 895,658c25,90 25,328 0,418c-95,345 -358,590 -701,650c-71,13 -231,12 -301,0zM2734,2790c310,-79 526,-358 526,-680c0,-391 -310,-700 -699,-700c-119,0 -203,19 -306,70c-248,121 -395,356 -395,630c0,166 50,309 155,442c85,108 243,209 380,242c90,22 246,20 339,-4z"></path><path d="M2420,2626c-74,-21 -160,-68 -211,-116c-41,-38 -49,-52 -49,-81c0,-24 7,-42 23,-56c47,-42 81,-37 150,22c86,74 229,98 349,60c66,-21 108,-11 127,31c28,62 -3,105 -96,134c-75,23 -220,26 -293,6z"></path><path d="M2933,2358c-39,-19 -49,-62 -28,-126c25,-79 23,-181 -6,-257c-16,-44 -38,-76 -83,-121c-76,-76 -146,-105 -253,-106c-91,0 -159,22 -223,73c-81,64 -110,69 -157,26c-39,-35 -31,-82 22,-134c88,-84 219,-133 354,-133c156,0 266,46 376,155c109,109 155,220 155,376c0,187 -66,291 -157,247z"></path></g></g></g></svg>