<svg version="1.1" xmlns="http://www.w3.org/2000/svg" xmlns:xlink="http://www.w3.org/1999/xlink" width="734.000000pt" height="336.000000pt" viewBox="0,0,256,117.1875"><g fill="#ffffff" fill-rule="nonzero" stroke="none" stroke-width="1" stroke-linecap="butt" stroke-linejoin="miter" stroke-miterlimit="10" stroke-dasharray="" stroke-dashoffset="0" font-family="none" font-weight="none" font-size="none" text-anchor="none" style="mix-blend-mode: normal"><g transform="translate(0,8.42747) scale(0.34877,0.34877)"><g transform="translate(0,336) scale(0.1,-0.1)"><path d="M3743,3332c-92,-25 -93,-25 -103,-62l-10,-38l-138,35l-137,35l-71,-17l-72,-16l14,-51l13,-51l-40,-69l-40,-69l12,-54c12,-53 14,-56 53,-66c23,-5 47,-12 54,-14c7,-3 40,9 73,26c63,31 68,31 160,8c35,-9 37,-12 48,-70c7,-34 15,-67 18,-75c4,-10 -3,-14 -20,-14c-22,0 -28,-7 -36,-37c-8,-29 -8,-41 3,-51c19,-20 50,-2 106,58l45,49l70,-17c76,-20 99,-46 51,-58c-33,-8 -33,-31 -1,-46c16,-7 25,-19 25,-34c0,-35 44,-41 81,-9c17,14 43,25 59,25c38,0 60,9 60,26c0,10 -13,14 -45,14c-40,0 -46,3 -61,31c-19,39 -18,40 84,63c42,10 82,23 89,28c6,5 14,27 18,48c6,36 11,41 45,50c36,10 40,14 55,67c32,109 37,102 -106,138c-69,18 -130,35 -136,38c-6,4 -13,20 -16,36c-5,25 -12,30 -39,33c-30,3 -33,6 -48,65c-8,34 -17,64 -20,66c-3,2 -47,-7 -97,-21zM3668,3168c9,-9 15,-9 24,0c20,20 66,15 78,-9c19,-34 7,-61 -42,-97l-48,-34l-47,34c-50,36 -62,63 -43,97c12,24 58,29 78,9z"></path><path d="M80,1680v-1190h3590h3590v1190v1190h-1325h-1325v-45v-45h1285h1285v-1105v-1105h-3505h-3505l-1,650c0,358 -1,810 -1,1005c0,195 1,400 1,455l1,100h1285h1285v45v45h-1330h-1330z"></path><path d="M747,1914c-4,-4 -7,-115 -7,-246v-238h30h29l3,113l3,112h110h110l3,-112l3,-113h30h29l-2,243l-3,242l-27,3l-28,3v-105v-106h-115h-114l-3,103c-3,94 -5,102 -23,105c-12,2 -24,0 -28,-4z"></path><path d="M1337,1914c-4,-4 -7,-115 -7,-246v-238h141h140l-3,28l-3,27l-108,3l-108,3l3,82l3,82l88,3c85,3 88,4 85,25c-3,21 -9,22 -91,25l-88,3l3,72l3,72l108,3l108,3l-3,27l-3,27l-131,3c-71,1 -133,-1 -137,-4z"></path><path d="M1837,1914c-4,-4 -7,-115 -7,-246v-238h136h135l-3,28l-3,27l-102,3l-103,3l-2,212c-3,205 -4,212 -23,215c-12,2 -24,0 -28,-4z"></path><path d="M2298,1914c-5,-4 -8,-115 -8,-246v-238h30h29l3,93l3,92l80,5c86,6 107,14 144,54c19,20 26,40 28,84c5,70 -19,116 -75,139c-40,17 -222,30 -234,17zM2519,1833c35,-27 42,-98 12,-134c-17,-21 -29,-24 -100,-27l-81,-4v89c0,49 3,93 8,97c14,15 133,-1 161,-21z"></path><path d="M3037,1914c-4,-4 -7,-18 -7,-31c0,-22 3,-23 70,-23h70v-215v-215h30h30l2,213l3,212l73,3c73,3 73,3 70,30l-3,27l-166,3c-91,1 -168,-1 -172,-4z"></path><path d="M3715,1915c-5,-2 -22,-6 -37,-9c-40,-9 -98,-65 -121,-115c-40,-90 -19,-248 41,-314c51,-57 160,-74 232,-37c74,38 114,118 114,230c0,82 -17,132 -61,181c-41,45 -127,78 -168,64zM3817,1833c41,-27 64,-87 64,-163c0,-122 -51,-190 -141,-190c-91,0 -144,73 -142,196c1,93 41,159 107,177c29,8 85,-2 112,-20z"></path><path d="M4427,1914c-4,-4 -7,-115 -7,-246v-238h136h135l-3,28l-3,27l-102,3l-103,3l-2,212c-3,205 -4,212 -23,215c-12,2 -24,0 -28,-4z"></path><path d="M4887,1914c-4,-4 -7,-115 -7,-246v-238h146h145l-3,28l-3,27l-113,3l-113,3l3,82l3,82l93,3c90,3 93,4 90,25c-3,21 -9,22 -96,25l-93,3l3,72l3,72l108,3l108,3l-3,27l-3,27l-131,3c-71,1 -133,-1 -137,-4z"></path><path d="M5486,1911c-5,-7 -166,-472 -166,-478c0,-2 13,-3 29,-3c28,0 31,4 53,73l23,72h90h89l22,-70c21,-66 23,-70 54,-73c24,-3 31,0 28,10c-3,7 -38,112 -78,233c-40,121 -77,226 -83,233c-11,14 -53,16 -61,3zM5554,1742l34,-112h-74h-73l8,28c34,116 63,203 67,200c2,-2 19,-55 38,-116z"></path><path d="M5821,1903c0,-10 33,-119 72,-243l73,-225l37,-3c20,-2 37,-1 37,2c0,4 120,390 140,449c7,22 6,29 -7,34c-9,3 -22,2 -31,-3c-8,-6 -40,-97 -72,-207c-54,-186 -65,-217 -73,-206c-2,2 -27,87 -56,189c-69,238 -65,230 -96,230c-17,0 -25,-5 -24,-17z"></path><path d="M6377,1914c-4,-4 -7,-115 -7,-246v-238h141h140l-3,28l-3,27l-108,3l-108,3l3,82l3,82l88,3c85,3 88,4 85,25c-3,21 -9,22 -91,25l-88,3l3,72l3,72l108,3l108,3l-3,27l-3,27l-131,3c-71,1 -133,-1 -137,-4z"></path></g></g></g></svg>