<svg version="1.1" xmlns="http://www.w3.org/2000/svg" xmlns:xlink="http://www.w3.org/1999/xlink" width="512.000000pt" height="512.000000pt" viewBox="0,0,256,256"><g fill="#111314" fill-rule="nonzero" stroke="none" stroke-width="1" stroke-linecap="butt" stroke-linejoin="miter" stroke-miterlimit="10" stroke-dasharray="" stroke-dashoffset="0" font-family="none" font-weight="none" font-size="none" text-anchor="none" style="mix-blend-mode: normal"><g transform="translate(0,0.00933) scale(0.5,0.5)"><g transform="translate(0,512) scale(0.1,-0.1)"><path d="M643,5019c-45,-14 -77,-33 -118,-71c-71,-65 -103,-126 -116,-226c-6,-51 -9,-727 -7,-1977l3,-1900l23,-57c33,-81 106,-158 184,-194l63,-29l266,-3l267,-3l4,-107c3,-89 8,-116 30,-163c36,-79 89,-133 166,-171l67,-33l1465,-3c1446,-2 1466,-2 1532,18c51,15 80,32 123,72c71,65 103,126 116,226c6,51 9,727 7,1977l-3,1900l-23,57c-33,81 -106,158 -184,193c-53,24 -80,29 -170,33l-108,5v98c0,119 -21,185 -82,254c-51,57 -98,88 -168,109c-48,14 -223,16 -1664,15c-1572,0 -1613,-1 -1673,-20zM772,4849l-37,-72v-1977v-1977l37,-73l38,-73l-60,6c-99,11 -171,60 -204,139c-14,33 -16,246 -16,1980c0,1866 1,1945 19,1984c36,79 120,131 218,133l41,1zM3985,4893c51,-27 90,-68 109,-115c14,-33 16,-246 16,-1978c0,-1606 -2,-1946 -13,-1973c-20,-47 -64,-95 -111,-120l-41,-22l-1430,-3c-1024,-2 -1445,0 -1482,8c-72,16 -129,60 -159,123l-24,52v1935c0,1926 1,1935 21,1980c32,70 75,108 149,131c14,4 678,7 1475,6l1450,-2zM4465,4412c50,-26 90,-66 109,-114c14,-33 16,-246 16,-1980c0,-1866 -1,-1945 -19,-1984c-26,-58 -92,-111 -155,-124c-36,-8 -470,-10 -1487,-8l-1436,3l-49,30c-30,19 -60,49 -78,79c-27,43 -31,59 -34,147l-4,99l1319,2l1318,3l67,33c81,40 149,111 177,188c21,54 21,64 21,1848c0,986 3,1796 8,1800c15,16 185,0 227,-22z"></path><path d="M2280,4515c-151,-30 -300,-98 -428,-195c-507,-381 -551,-1129 -94,-1572c135,-131 287,-217 470,-265c84,-22 117,-26 252,-26c136,0 168,4 255,27c183,48 343,139 478,273c191,189 292,417 304,685c7,143 -5,238 -44,363c-113,358 -413,631 -778,706c-107,22 -315,24 -415,4zM2420,3975v-425h-191h-192l6,89c19,270 111,529 235,663c48,51 110,96 135,98c4,0 7,-191 7,-425zM2616,4366c110,-75 205,-241 259,-456c30,-120 45,-222 45,-300v-60l-187,2l-188,3l-3,423c-2,336 0,422 11,422c7,0 35,-15 63,-34zM2144,4338c-4,-7 -23,-37 -41,-66c-92,-144 -163,-389 -181,-622l-7,-95l-165,-3c-90,-1 -169,-1 -176,2c-17,6 2,126 37,231c76,228 235,413 453,525c84,44 91,46 80,28zM2903,4308c201,-105 355,-277 437,-490c30,-77 65,-242 54,-259c-3,-5 -81,-9 -174,-9h-169l-5,43c-3,23 -10,89 -16,146c-21,195 -82,385 -169,530c-27,45 -47,81 -44,81c3,0 41,-19 86,-42zM1920,3382c0,-130 46,-360 100,-500c17,-44 53,-117 80,-161c55,-93 52,-95 -56,-35c-166,91 -302,232 -387,399c-33,66 -75,205 -85,283l-9,62h179h178zM2420,3004v-425l-51,28c-163,88 -302,401 -326,732l-6,91h192h191zM2918,3340c-27,-344 -160,-643 -327,-733l-51,-28v425v426h193h193zM3393,3383c-17,-136 -80,-301 -155,-411c-76,-111 -200,-221 -329,-292c-91,-49 -108,-51 -76,-7c41,53 103,186 136,291c34,107 71,300 71,374c0,98 -11,92 186,92h174z"></path><path d="M1543,1869c-30,-15 -48,-33 -63,-64c-20,-40 -21,-58 -18,-194c3,-163 8,-178 72,-225c27,-21 34,-21 944,-21c885,0 918,1 949,19c62,38 73,75 73,243c0,171 -10,202 -76,240l-39,23h-900c-891,0 -900,0 -942,-21zM3364,1764c13,-5 16,-27 16,-133c0,-85 -4,-131 -12,-139c-16,-16 -1739,-18 -1769,-2c-17,10 -19,22 -19,133c0,82 4,127 12,135c9,9 219,12 884,12c480,0 879,-3 888,-6z"></path></g></g></g></svg>