<svg version="1.1" xmlns="http://www.w3.org/2000/svg" xmlns:xlink="http://www.w3.org/1999/xlink" width="512.000000pt" height="512.000000pt" viewBox="0,0,256,256"><g fill="#111314" fill-rule="nonzero" stroke="none" stroke-width="1" stroke-linecap="butt" stroke-linejoin="miter" stroke-miterlimit="10" stroke-dasharray="" stroke-dashoffset="0" font-family="none" font-weight="none" font-size="none" text-anchor="none" style="mix-blend-mode: normal"><g transform="translate(-0.00932,-0.02364) scale(0.5,0.5)"><g transform="translate(0,512) scale(0.1,-0.1)"><path d="M4760,4415c-47,-22 -270,-241 -1600,-1570l-1545,-1545l-605,604c-333,332 -620,612 -639,621c-19,9 -60,20 -91,22c-114,11 -208,-46 -258,-155c-30,-66 -27,-143 8,-213c31,-62 1407,-1438 1469,-1469c25,-12 70,-25 102,-27c47,-5 66,-1 115,21c53,24 214,181 1706,1674c1493,1492 1650,1653 1674,1706c22,49 26,68 21,116c-12,132 -109,228 -242,237c-49,3 -70,0 -115,-22z"></path></g></g></g></svg>