<svg version="1.1" xmlns="http://www.w3.org/2000/svg" xmlns:xlink="http://www.w3.org/1999/xlink" width="512.000000pt" height="512.000000pt" viewBox="0,0,256,256"><g fill="#111314" fill-rule="nonzero" stroke="none" stroke-width="1" stroke-linecap="butt" stroke-linejoin="miter" stroke-miterlimit="10" stroke-dasharray="" stroke-dashoffset="0" font-family="none" font-weight="none" font-size="none" text-anchor="none" style="mix-blend-mode: normal"><g transform="translate(0,0.05386) scale(0.5,0.5)"><g transform="translate(0,512) scale(0.1,-0.1)"><path d="M1026,4949c-62,-15 -153,-68 -197,-116c-22,-24 -55,-74 -72,-111l-32,-67v-2096v-2095l37,-76c45,-91 103,-147 196,-191l67,-32h1535h1535l67,32c93,44 151,100 196,191l37,76v2095v2096l-32,67c-44,93 -100,151 -191,196l-76,37l-1515,2c-894,1 -1532,-3 -1555,-8zM4074,4788c55,-16 138,-99 154,-154c18,-60 18,-4088 0,-4148c-16,-55 -99,-138 -154,-154c-60,-17 -2968,-17 -3028,0c-55,16 -138,99 -154,154c-18,60 -18,4088 0,4148c15,51 99,137 148,153c53,17 2978,17 3034,1z"></path><path d="M2440,4229c-247,-28 -512,-166 -667,-346c-195,-225 -289,-524 -254,-809c14,-115 66,-280 117,-374c268,-492 874,-682 1382,-433c273,133 464,372 543,680c100,391 -62,835 -393,1079c-35,25 -65,50 -68,54c-11,18 -173,91 -253,114c-80,23 -244,47 -304,45c-15,-1 -62,-5 -103,-10zM2690,4070c85,-14 200,-48 200,-60c0,-5 -21,-20 -47,-33c-87,-44 -154,-60 -244,-61c-77,0 -93,3 -150,31c-35,18 -79,47 -98,66l-33,35l53,11c30,5 65,12 79,14c50,8 177,7 240,-3zM2236,3912c80,-80 184,-136 283,-153c138,-25 356,34 505,135l38,27l45,-37c71,-59 140,-133 185,-202c22,-34 39,-64 37,-66c-2,-2 -24,-14 -49,-26c-97,-49 -169,-127 -211,-230c-19,-48 -23,-81 -29,-255c-6,-189 -8,-204 -35,-265c-77,-181 -90,-257 -61,-368l13,-53l-37,-19c-37,-19 -152,-60 -168,-60c-5,0 -12,35 -15,78c-9,140 -67,266 -150,328c-23,17 -82,46 -132,64c-128,46 -204,86 -247,127c-52,50 -62,88 -52,187c4,45 8,119 8,166c1,77 -2,92 -31,150c-42,86 -117,168 -209,229l-75,50l77,81c67,70 210,180 234,180c4,0 39,-31 76,-68zM1846,3527c74,-54 121,-108 147,-166c16,-38 18,-55 12,-115c-5,-39 -9,-116 -9,-171c0,-86 3,-107 24,-150c50,-104 162,-185 355,-256c117,-43 143,-62 171,-123c20,-45 43,-153 44,-208c0,-23 -63,-24 -185,-3c-433,76 -747,472 -722,910c8,140 61,325 92,325c7,0 39,-19 71,-43zM3431,3319c39,-266 -56,-545 -253,-741c-70,-70 -71,-71 -80,-47c-15,37 -2,121 25,176c60,117 69,164 76,378c6,176 10,205 28,240c27,51 88,110 133,129l35,14l12,-34c7,-18 17,-71 24,-115z"></path><path d="M1545,1575c-16,-15 -25,-36 -25,-55c0,-19 9,-40 25,-55l24,-25h991h991l24,25c16,15 25,36 25,55c0,19 -9,40 -25,55l-24,25h-991h-991z"></path><path d="M1545,1015c-16,-15 -25,-36 -25,-55c0,-19 9,-40 25,-55l24,-25h991h991l24,25c16,15 25,36 25,55c0,19 -9,40 -25,55l-24,25h-991h-991z"></path></g></g></g></svg>