<svg version="1.1" xmlns="http://www.w3.org/2000/svg" xmlns:xlink="http://www.w3.org/1999/xlink" width="512.000000pt" height="512.000000pt" viewBox="0,0,256,256"><g fill="#111314" fill-rule="nonzero" stroke="none" stroke-width="1" stroke-linecap="butt" stroke-linejoin="miter" stroke-miterlimit="10" stroke-dasharray="" stroke-dashoffset="0" font-family="none" font-weight="none" font-size="none" text-anchor="none" style="mix-blend-mode: normal"><g transform="translate(0.00363,-0.07136) scale(0.5,0.5)"><g transform="translate(0,512) scale(0.1,-0.1)"><path d="M1640,4951c-86,-27 -165,-93 -208,-176c-24,-45 -27,-63 -30,-185c-3,-123 -2,-138 16,-160c27,-33 87,-34 113,-1c16,20 19,41 19,132c0,71 5,121 14,142c16,39 61,82 99,96c19,8 296,11 860,11c790,0 834,-1 873,-19c49,-22 80,-62 93,-122c14,-59 14,-1139 0,-1198c-13,-60 -44,-100 -93,-122c-39,-18 -83,-19 -874,-19c-685,0 -838,2 -865,14c-39,16 -82,61 -96,99c-7,18 -11,156 -11,381c0,342 -1,354 -21,380c-27,34 -77,36 -108,2l-22,-23l3,-384l3,-384l27,-50c33,-64 89,-120 153,-153l50,-27h885h885l57,28c67,33 121,90 157,166l26,56v635v635l-26,56c-36,76 -90,133 -157,166l-57,28l-870,2c-478,1 -881,-2 -895,-6z"></path><path d="M2285,4531c-40,-10 -86,-35 -107,-58c-45,-49 -48,-76 -48,-403c0,-327 3,-354 48,-403c41,-45 121,-70 183,-56c56,13 532,293 569,335c68,78 61,194 -17,265c-38,35 -503,306 -539,314c-54,12 -59,13 -89,6zM2577,4243c129,-76 239,-146 244,-155c6,-12 6,-24 0,-35c-13,-26 -474,-293 -504,-293c-14,0 -28,7 -31,16c-8,20 -8,568 0,588c3,9 17,16 31,16c13,0 130,-62 260,-137z"></path><path d="M573,4026c-176,-43 -325,-197 -362,-374c-8,-37 -11,-458 -11,-1402v-1350h-79c-74,0 -81,-2 -100,-26c-18,-23 -21,-41 -21,-140c0,-139 12,-198 57,-291c42,-86 129,-177 212,-222c122,-65 -25,-61 2287,-61c1357,0 2120,4 2155,10c122,23 249,110 324,224c62,92 78,154 83,311c4,132 3,142 -18,168c-20,25 -26,27 -101,27h-79v1350c0,944 -3,1365 -11,1402c-38,183 -194,339 -377,377c-32,7 -178,11 -372,11c-307,0 -321,-1 -340,-20c-27,-27 -26,-81 1,-106c20,-18 45,-19 358,-24l336,-5l57,-27c70,-32 133,-96 167,-168l26,-55l3,-1367l2,-1368h-862c-839,0 -864,-1 -895,-20c-18,-10 -44,-37 -58,-59c-47,-70 -54,-71 -400,-71c-346,0 -353,1 -400,71c-14,22 -40,49 -58,59c-31,19 -56,20 -890,20h-857l2,1368l3,1367l26,55c33,70 99,136 169,169c55,26 58,26 358,31l304,5l19,24c26,32 24,67 -6,96l-24,25l-288,-1c-194,0 -305,-5 -340,-13zM2055,708c17,-23 55,-55 85,-72l55,-31h360h360l55,30c31,17 67,48 85,72l30,42h944l944,1l-5,-84c-10,-148 -86,-264 -211,-322l-62,-29h-2135h-2135l-62,29c-125,58 -201,174 -211,322l-5,84l939,-1h939z"></path><path d="M610,3697c-30,-16 -51,-37 -67,-67l-23,-43v-894c0,-553 4,-901 10,-912c5,-10 22,-24 39,-30c24,-10 34,-10 60,3c17,9 32,18 33,19c2,1 5,405 8,897l5,895l268,5c268,5 269,5 288,29c26,32 24,67 -6,96l-24,25h-274c-267,0 -275,-1 -317,-23z"></path><path d="M3822,3700c-29,-27 -29,-80 -1,-106c19,-18 44,-19 323,-24l301,-5l3,-1172l2,-1173h-545h-545v188c0,155 -4,203 -20,266c-29,112 -80,202 -172,301l-80,86l32,66c43,87 50,153 21,182c-22,22 -61,27 -91,11c-10,-5 -30,-41 -45,-80c-103,-269 -398,-389 -650,-266c-293,144 -357,526 -126,756c231,231 609,163 759,-137c50,-99 81,-115 136,-72c37,29 34,71 -11,158c-128,250 -426,390 -689,323c-131,-33 -208,-76 -299,-167c-127,-126 -185,-264 -185,-435c0,-104 20,-192 62,-275l31,-64l-80,-86c-93,-99 -144,-188 -173,-301c-16,-63 -20,-111 -20,-266v-188h-545h-545v153c0,148 -1,154 -23,175c-31,29 -77,29 -105,-1c-21,-22 -22,-32 -22,-224c0,-183 2,-203 19,-224l19,-24h2002h2002l19,24c18,23 19,57 19,1256v1232l-23,43c-16,30 -37,51 -67,67c-42,23 -49,23 -355,23c-299,0 -312,-1 -333,-20zM2209,1886c114,-78 213,-109 351,-108c139,0 238,30 353,109l82,56l67,-74c126,-138 148,-206 148,-471v-178h-650h-650v174c0,199 8,258 50,341c24,48 150,205 165,205c3,0 40,-24 84,-54z"></path></g></g></g></svg>