<svg version="1.1" xmlns="http://www.w3.org/2000/svg" xmlns:xlink="http://www.w3.org/1999/xlink" width="512.000000pt" height="512.000000pt" viewBox="0,0,256,256"><g fill="#e5e3dd" fill-rule="nonzero" stroke="none" stroke-width="1" stroke-linecap="butt" stroke-linejoin="miter" stroke-miterlimit="10" stroke-dasharray="" stroke-dashoffset="0" font-family="none" font-weight="none" font-size="none" text-anchor="none" style="mix-blend-mode: normal"><g transform="translate(0.24659,0.0122) scale(0.5,0.5)"><g transform="translate(0,512) scale(0.1,-0.1)"><path d="M1179,3387c-64,-34 -102,-93 -107,-166c-2,-32 1,-76 8,-97c10,-32 142,-169 679,-707c446,-447 679,-674 707,-687c50,-25 133,-26 182,-3c24,10 275,254 690,667c500,499 658,663 677,700c90,180 -92,368 -275,285c-34,-15 -180,-154 -613,-587l-567,-567l-578,577c-399,400 -588,582 -614,593c-56,23 -136,19 -189,-8z"></path></g></g></g></svg>